<mxfile host="app.diagrams.net" modified="2020-12-30T11:27:52.289Z" agent="5.0 (Windows NT 10.0; Win64; x64) AppleWebKit/537.36 (KHTML, like Gecko) Chrome/87.0.4280.88 Safari/537.36" etag="Kkjdrb0nFTFzTEWB-Mzm" version="14.1.3" type="github">
  <diagram id="kgpKYQtTHZ0yAKxKKP6v" name="Page-1">
    <mxGraphModel dx="1044" dy="613" grid="1" gridSize="10" guides="1" tooltips="1" connect="1" arrows="1" fold="1" page="1" pageScale="1" pageWidth="1000" pageHeight="500" math="0" shadow="0">
      <root>
        <mxCell id="0" />
        <mxCell id="1" parent="0" />
        <mxCell id="vwlu7_VKPTwD4sSRkWJh-22" value="&lt;span style=&quot;font-family: &amp;#34;verdana&amp;#34; ; text-align: center&quot;&gt;&amp;nbsp;2: نوع غذا، تعداد و قیمت)&amp;nbsp;&lt;/span&gt;&lt;span style=&quot;font-family: &amp;#34;verdana&amp;#34; ; text-align: center&quot;&gt;تنظیم منوی روزانه)&lt;/span&gt;" style="text;whiteSpace=wrap;html=1;" vertex="1" parent="1">
          <mxGeometry x="551" y="212" width="216" height="30" as="geometry" />
        </mxCell>
        <mxCell id="vwlu7_VKPTwD4sSRkWJh-11" value="مدیریت غذا" style="shape=note;whiteSpace=wrap;html=1;size=14;verticalAlign=top;align=left;spacingTop=-6;rounded=0;shadow=0;comic=0;labelBackgroundColor=none;strokeWidth=1;fontFamily=Verdana;fontSize=12" vertex="1" parent="1">
          <mxGeometry width="100" height="35" as="geometry" />
        </mxCell>
        <mxCell id="vwlu7_VKPTwD4sSRkWJh-12" value="فروشنده" style="shape=umlActor;verticalLabelPosition=bottom;verticalAlign=top;html=1;outlineConnect=0;" vertex="1" parent="1">
          <mxGeometry x="130" y="227" width="30" height="60" as="geometry" />
        </mxCell>
        <mxCell id="vwlu7_VKPTwD4sSRkWJh-13" value="سیستم" style="rounded=0;whiteSpace=wrap;html=1;" vertex="1" parent="1">
          <mxGeometry x="420" y="217" width="120" height="60" as="geometry" />
        </mxCell>
        <mxCell id="vwlu7_VKPTwD4sSRkWJh-14" value="رستوران:رستوران" style="rounded=1;whiteSpace=wrap;html=1;" vertex="1" parent="1">
          <mxGeometry x="809" y="217" width="120" height="60" as="geometry" />
        </mxCell>
        <mxCell id="vwlu7_VKPTwD4sSRkWJh-15" value="&lt;span style=&quot;color: rgba(0 , 0 , 0 , 0) ; font-family: monospace ; font-size: 0px ; background-color: rgb(248 , 249 , 250)&quot;&gt;%3CmxGraphModel%3E%3Croot%3E%3CmxCell%20id%3D%220%22%2F%3E%3CmxCell%20id%3D%221%22%20parent%3D%220%22%2F%3E%3CmxCell%20id%3D%222%22%20value%3D%22%22%20style%3D%22endArrow%3Dnone%3Bhtml%3D1%3BexitX%3D1%3BexitY%3D0.5%3BexitDx%3D0%3BexitDy%3D0%3BentryX%3D0%3BentryY%3D0.5%3BentryDx%3D0%3BentryDy%3D0%3B%22%20edge%3D%221%22%20parent%3D%221%22%3E%3CmxGeometry%20width%3D%2250%22%20height%3D%2250%22%20relative%3D%221%22%20as%3D%22geometry%22%3E%3CmxPoint%20x%3D%22434.0000000000002%22%20y%3D%22240%22%20as%3D%22sourcePoint%22%2F%3E%3CmxPoint%20x%3D%22683.9999999999998%22%20y%3D%22240%22%20as%3D%22targetPoint%22%2F%3E%3C%2FmxGeometry%3E%3C%2FmxCell%3E%3C%2Froot%3E%3C%2FmxGraphModel%3E&lt;/span&gt;" style="endArrow=none;html=1;exitX=1;exitY=0.5;exitDx=0;exitDy=0;entryX=0;entryY=0.5;entryDx=0;entryDy=0;" edge="1" parent="1" source="vwlu7_VKPTwD4sSRkWJh-13" target="vwlu7_VKPTwD4sSRkWJh-14">
          <mxGeometry width="50" height="50" relative="1" as="geometry">
            <mxPoint x="550" y="287" as="sourcePoint" />
            <mxPoint x="740" y="247" as="targetPoint" />
          </mxGeometry>
        </mxCell>
        <mxCell id="vwlu7_VKPTwD4sSRkWJh-16" value="" style="endArrow=classicThin;html=1;strokeWidth=1;endSize=20;entryX=0;entryY=0.5;entryDx=0;entryDy=0;" edge="1" parent="1">
          <mxGeometry width="100" relative="1" as="geometry">
            <mxPoint x="765.9999999999998" y="226.99999999999997" as="sourcePoint" />
            <mxPoint x="795.9999999999998" y="226.99999999999997" as="targetPoint" />
            <Array as="points" />
          </mxGeometry>
        </mxCell>
        <mxCell id="vwlu7_VKPTwD4sSRkWJh-18" value="" style="endArrow=classicThin;html=1;strokeWidth=1;endSize=20;entryX=0;entryY=0.5;entryDx=0;entryDy=0;" edge="1" parent="1">
          <mxGeometry width="100" relative="1" as="geometry">
            <mxPoint x="375" y="227" as="sourcePoint" />
            <mxPoint x="405" y="227" as="targetPoint" />
            <Array as="points" />
          </mxGeometry>
        </mxCell>
        <mxCell id="vwlu7_VKPTwD4sSRkWJh-19" value="&lt;span style=&quot;font-family: &amp;#34;verdana&amp;#34; ; text-align: center&quot;&gt;&amp;nbsp;1: نوع غذا، تعداد و قیمت)&amp;nbsp;&lt;/span&gt;&lt;span style=&quot;font-family: &amp;#34;verdana&amp;#34; ; text-align: center&quot;&gt;ثبت فعالسازی منو)&lt;/span&gt;" style="text;whiteSpace=wrap;html=1;" vertex="1" parent="1">
          <mxGeometry x="164" y="212" width="216" height="30" as="geometry" />
        </mxCell>
        <mxCell id="vwlu7_VKPTwD4sSRkWJh-20" value="&lt;span style=&quot;color: rgba(0 , 0 , 0 , 0) ; font-family: monospace ; font-size: 0px ; background-color: rgb(248 , 249 , 250)&quot;&gt;%3CmxGraphModel%3E%3Croot%3E%3CmxCell%20id%3D%220%22%2F%3E%3CmxCell%20id%3D%221%22%20parent%3D%220%22%2F%3E%3CmxCell%20id%3D%222%22%20value%3D%22%22%20style%3D%22endArrow%3Dnone%3Bhtml%3D1%3BexitX%3D1%3BexitY%3D0.5%3BexitDx%3D0%3BexitDy%3D0%3BentryX%3D0%3BentryY%3D0.5%3BentryDx%3D0%3BentryDy%3D0%3B%22%20edge%3D%221%22%20parent%3D%221%22%3E%3CmxGeometry%20width%3D%2250%22%20height%3D%2250%22%20relative%3D%221%22%20as%3D%22geometry%22%3E%3CmxPoint%20x%3D%22434.0000000000002%22%20y%3D%22240%22%20as%3D%22sourcePoint%22%2F%3E%3CmxPoint%20x%3D%22683.9999999999998%22%20y%3D%22240%22%20as%3D%22targetPoint%22%2F%3E%3C%2FmxGeometry%3E%3C%2FmxCell%3E%3C%2Froot%3E%3C%2FmxGraphModel%3E&lt;/span&gt;" style="endArrow=none;html=1;exitX=1;exitY=0.3333333333333333;exitDx=0;exitDy=0;entryX=0;entryY=0.5;entryDx=0;entryDy=0;exitPerimeter=0;" edge="1" parent="1" source="vwlu7_VKPTwD4sSRkWJh-12" target="vwlu7_VKPTwD4sSRkWJh-13">
          <mxGeometry width="50" height="50" relative="1" as="geometry">
            <mxPoint x="550.0000000000002" y="257" as="sourcePoint" />
            <mxPoint x="799.9999999999998" y="257" as="targetPoint" />
          </mxGeometry>
        </mxCell>
      </root>
    </mxGraphModel>
  </diagram>
</mxfile>
